<mxfile host="app.diagrams.net" modified="2024-05-26T06:17:47.985Z" agent="Mozilla/5.0 (Windows NT 10.0; Win64; x64) AppleWebKit/537.36 (KHTML, like Gecko) Chrome/125.0.0.0 Safari/537.36" version="24.4.8" etag="h2edY1hDqrC1u1LlHSS5" type="github">
  <diagram name="第 1 页" id="qcYdRjg96rGkabj2Buc9">
    <mxGraphModel>
      <root>
        <mxCell id="0" />
        <mxCell id="1" parent="0" />
      </root>
    </mxGraphModel>
  </diagram>
</mxfile>
